<svg xmlns="http://www.w3.org/2000/svg" version="1.1" xmlns:xlink="http://www.w3.org/1999/xlink" xmlns:svgjs="http://svgjs.dev/svgjs" viewBox="0 0 800 800"><circle r="9.5" cx="30" cy="219" fill="hsl(62, 75%, 70%)" opacity="0.24"></circle><circle r="8.5" cx="24" cy="294" fill="hsl(67, 75%, 70%)" opacity="0.96"></circle><circle r="7" cx="394" cy="676" fill="hsl(139, 75%, 70%)" opacity="0.18"></circle><circle r="5" cx="113" cy="455" fill="hsl(19, 75%, 70%)" opacity="0.28"></circle><circle r="9.5" cx="390" cy="74" fill="hsl(248, 75%, 70%)" opacity="0.51"></circle><circle r="7.5" cx="457" cy="41" fill="hsl(288, 75%, 70%)" opacity="0.64"></circle><circle r="6.5" cx="18" cy="585" fill="hsl(67, 75%, 70%)" opacity="0.66"></circle><circle r="4.5" cx="245" cy="236" fill="hsl(11, 75%, 70%)" opacity="0.77"></circle><circle r="7.5" cx="785" cy="266" fill="hsl(180, 75%, 70%)" opacity="0.32"></circle><circle r="10" cx="426" cy="40" fill="hsl(284, 75%, 70%)" opacity="0.90"></circle><circle r="19" cx="613" cy="437" fill="hsl(309, 75%, 70%)" opacity="0.80"></circle><circle r="10.5" cx="576" cy="759" fill="hsl(295, 75%, 70%)" opacity="1.00"></circle><circle r="8" cx="355" cy="448" fill="hsl(98, 75%, 70%)" opacity="0.20"></circle><circle r="14.5" cx="722" cy="38" fill="hsl(308, 75%, 70%)" opacity="0.22"></circle><circle r="4.5" cx="209" cy="217" fill="hsl(1, 75%, 70%)" opacity="0.95"></circle><circle r="9.5" cx="512" cy="208" fill="hsl(241, 75%, 70%)" opacity="0.78"></circle><circle r="8" cx="399" cy="147" fill="hsl(163, 75%, 70%)" opacity="0.17"></circle><circle r="12.5" cx="601" cy="327" fill="hsl(306, 75%, 70%)" opacity="0.65"></circle><circle r="5" cx="79" cy="14" fill="hsl(74, 75%, 70%)" opacity="0.34"></circle><circle r="4" cx="155" cy="323" fill="hsl(5, 75%, 70%)" opacity="0.68"></circle><circle r="10" cx="24" cy="80" fill="hsl(74, 75%, 70%)" opacity="0.91"></circle><circle r="7.5" cx="763" cy="234" fill="hsl(197, 75%, 70%)" opacity="0.66"></circle><circle r="5.5" cx="326" cy="243" fill="hsl(72, 75%, 70%)" opacity="0.68"></circle><circle r="12" cx="472" cy="260" fill="hsl(209, 75%, 70%)" opacity="0.82"></circle><circle r="10.5" cx="775" cy="625" fill="hsl(197, 75%, 70%)" opacity="0.42"></circle><circle r="11" cx="484" cy="636" fill="hsl(220, 75%, 70%)" opacity="0.55"></circle><circle r="7" cx="332" cy="135" fill="hsl(120, 75%, 70%)" opacity="0.94"></circle><circle r="8.5" cx="739" cy="335" fill="hsl(232, 75%, 70%)" opacity="0.45"></circle><circle r="5" cx="118" cy="535" fill="hsl(19, 75%, 70%)" opacity="0.39"></circle><circle r="5.5" cx="259" cy="373" fill="hsl(16, 75%, 70%)" opacity="0.89"></circle><circle r="17" cx="773" cy="33" fill="hsl(270, 75%, 70%)" opacity="0.55"></circle><circle r="12" cx="570" cy="77" fill="hsl(311, 75%, 70%)" opacity="0.91"></circle><circle r="7" cx="277" cy="535" fill="hsl(31, 75%, 70%)" opacity="0.76"></circle><circle r="10" cx="410" cy="429" fill="hsl(151, 75%, 70%)" opacity="0.78"></circle><circle r="14.5" cx="629" cy="109" fill="hsl(343, 75%, 70%)" opacity="0.19"></circle><circle r="11" cx="726" cy="204" fill="hsl(248, 75%, 70%)" opacity="0.54"></circle><circle r="14" cx="566" cy="434" fill="hsl(288, 75%, 70%)" opacity="0.73"></circle><circle r="9.5" cx="408" cy="543" fill="hsl(151, 75%, 70%)" opacity="0.83"></circle><circle r="9.5" cx="453" cy="70" fill="hsl(273, 75%, 70%)" opacity="0.68"></circle><circle r="14" cx="578" cy="159" fill="hsl(308, 75%, 70%)" opacity="0.13"></circle><circle r="11.5" cx="529" cy="745" fill="hsl(262, 75%, 70%)" opacity="0.56"></circle><circle r="7.5" cx="365" cy="525" fill="hsl(112, 75%, 70%)" opacity="0.62"></circle><circle r="12" cx="603" cy="782" fill="hsl(306, 75%, 70%)" opacity="0.91"></circle><circle r="14" cx="623" cy="606" fill="hsl(309, 75%, 70%)" opacity="0.25"></circle><circle r="8" cx="416" cy="628" fill="hsl(164, 75%, 70%)" opacity="0.27"></circle><circle r="9" cx="779" cy="461" fill="hsl(180, 75%, 70%)" opacity="0.68"></circle><circle r="9.5" cx="474" cy="136" fill="hsl(230, 75%, 70%)" opacity="0.19"></circle><circle r="5" cx="123" cy="304" fill="hsl(19, 75%, 70%)" opacity="0.43"></circle><circle r="9" cx="442" cy="148" fill="hsl(203, 75%, 70%)" opacity="0.10"></circle><circle r="13.5" cx="629" cy="149" fill="hsl(338, 75%, 70%)" opacity="0.86"></circle><circle r="7" cx="238" cy="633" fill="hsl(11, 75%, 70%)" opacity="0.82"></circle><circle r="5" cx="101" cy="407" fill="hsl(25, 75%, 70%)" opacity="0.64"></circle><circle r="13.5" cx="454" cy="402" fill="hsl(198, 75%, 70%)" opacity="0.36"></circle><circle r="5.5" cx="208" cy="693" fill="hsl(1, 75%, 70%)" opacity="0.59"></circle><circle r="8" cx="413" cy="183" fill="hsl(164, 75%, 70%)" opacity="0.13"></circle><circle r="5" cx="186" cy="335" fill="hsl(1, 75%, 70%)" opacity="0.29"></circle><circle r="6.5" cx="320" cy="521" fill="hsl(60, 75%, 70%)" opacity="0.43"></circle><circle r="17.5" cx="720" cy="454" fill="hsl(263, 75%, 70%)" opacity="0.55"></circle><circle r="21.5" cx="685" cy="322" fill="hsl(297, 75%, 70%)" opacity="0.88"></circle><circle r="4" cx="133" cy="37" fill="hsl(44, 75%, 70%)" opacity="0.81"></circle><circle r="5.5" cx="211" cy="370" fill="hsl(1, 75%, 70%)" opacity="0.42"></circle><circle r="8" cx="391" cy="744" fill="hsl(139, 75%, 70%)" opacity="0.53"></circle><circle r="11.5" cx="520" cy="573" fill="hsl(252, 75%, 70%)" opacity="0.95"></circle><circle r="3.5" cx="10" cy="347" fill="hsl(72, 75%, 70%)" opacity="0.93"></circle><circle r="5" cx="12" cy="418" fill="hsl(72, 75%, 70%)" opacity="0.71"></circle><circle r="4" cx="285" cy="771" fill="hsl(31, 75%, 70%)" opacity="0.63"></circle><circle r="12" cx="601" cy="213" fill="hsl(306, 75%, 70%)" opacity="0.62"></circle><circle r="9.5" cx="520" cy="240" fill="hsl(252, 75%, 70%)" opacity="0.11"></circle><circle r="5.5" cx="332" cy="329" fill="hsl(72, 75%, 70%)" opacity="0.27"></circle><circle r="5.5" cx="33" cy="350" fill="hsl(62, 75%, 70%)" opacity="0.96"></circle><circle r="5" cx="39" cy="742" fill="hsl(56, 75%, 70%)" opacity="0.69"></circle><circle r="5.5" cx="47" cy="777" fill="hsl(56, 75%, 70%)" opacity="0.37"></circle><circle r="17.5" cx="661" cy="464" fill="hsl(308, 75%, 70%)" opacity="0.20"></circle><circle r="8.5" cx="377" cy="181" fill="hsl(127, 75%, 70%)" opacity="0.78"></circle><circle r="8" cx="64" cy="265" fill="hsl(44, 75%, 70%)" opacity="0.66"></circle><circle r="10.5" cx="524" cy="274" fill="hsl(252, 75%, 70%)" opacity="0.12"></circle><circle r="6.5" cx="406" cy="113" fill="hsl(199, 75%, 70%)" opacity="0.72"></circle><circle r="14" cx="735" cy="400" fill="hsl(248, 75%, 70%)" opacity="0.82"></circle><circle r="11" cx="596" cy="362" fill="hsl(301, 75%, 70%)" opacity="0.75"></circle><circle r="5.5" cx="198" cy="436" fill="hsl(1, 75%, 70%)" opacity="0.48"></circle><circle r="16.5" cx="590" cy="493" fill="hsl(301, 75%, 70%)" opacity="0.22"></circle><circle r="7.5" cx="679" cy="594" fill="hsl(297, 75%, 70%)" opacity="0.56"></circle><circle r="6.5" cx="217" cy="549" fill="hsl(3, 75%, 70%)" opacity="0.91"></circle><circle r="7" cx="288" cy="326" fill="hsl(39, 75%, 70%)" opacity="0.37"></circle><circle r="10.5" cx="521" cy="674" fill="hsl(252, 75%, 70%)" opacity="0.26"></circle><circle r="4" cx="17" cy="654" fill="hsl(67, 75%, 70%)" opacity="0.99"></circle><circle r="6" cx="111" cy="152" fill="hsl(9, 75%, 70%)" opacity="0.69"></circle><circle r="12.5" cx="701" cy="164" fill="hsl(303, 75%, 70%)" opacity="0.58"></circle><circle r="8.5" cx="379" cy="401" fill="hsl(125, 75%, 70%)" opacity="0.96"></circle><circle r="11" cx="573" cy="388" fill="hsl(288, 75%, 70%)" opacity="0.25"></circle><circle r="12" cx="480" cy="570" fill="hsl(220, 75%, 70%)" opacity="0.59"></circle><circle r="6.5" cx="35" cy="631" fill="hsl(62, 75%, 70%)" opacity="0.24"></circle><circle r="3.5" cx="305" cy="463" fill="hsl(49, 75%, 70%)" opacity="0.86"></circle><circle r="4" cx="48" cy="375" fill="hsl(56, 75%, 70%)" opacity="0.50"></circle><circle r="7.5" cx="371" cy="570" fill="hsl(112, 75%, 70%)" opacity="0.83"></circle><circle r="8" cx="366" cy="221" fill="hsl(112, 75%, 70%)" opacity="0.56"></circle><circle r="6" cx="75" cy="450" fill="hsl(44, 75%, 70%)" opacity="0.11"></circle><circle r="5.5" cx="325" cy="482" fill="hsl(60, 75%, 70%)" opacity="0.51"></circle><circle r="6.5" cx="444" cy="183" fill="hsl(187, 75%, 70%)" opacity="0.91"></circle><circle r="10.5" cx="756" cy="745" fill="hsl(215, 75%, 70%)" opacity="0.96"></circle><circle r="17" cx="562" cy="582" fill="hsl(280, 75%, 70%)" opacity="0.87"></circle><circle r="15" cx="776" cy="101" fill="hsl(272, 75%, 70%)" opacity="0.16"></circle><circle r="8.5" cx="559" cy="727" fill="hsl(280, 75%, 70%)" opacity="0.92"></circle><circle r="7" cx="33" cy="447" fill="hsl(62, 75%, 70%)" opacity="0.23"></circle><circle r="13.5" cx="492" cy="777" fill="hsl(231, 75%, 70%)" opacity="1.00"></circle><circle r="6" cx="246" cy="454" fill="hsl(11, 75%, 70%)" opacity="0.83"></circle><circle r="6" cx="191" cy="759" fill="hsl(1, 75%, 70%)" opacity="0.79"></circle><circle r="5.5" cx="397" cy="461" fill="hsl(139, 75%, 70%)" opacity="0.60"></circle><circle r="6" cx="246" cy="716" fill="hsl(11, 75%, 70%)" opacity="0.14"></circle><circle r="7.5" cx="391" cy="323" fill="hsl(139, 75%, 70%)" opacity="0.91"></circle><circle r="9.5" cx="780" cy="144" fill="hsl(242, 75%, 70%)" opacity="0.74"></circle><circle r="6" cx="276" cy="211" fill="hsl(31, 75%, 70%)" opacity="0.52"></circle><circle r="15" cx="543" cy="531" fill="hsl(271, 75%, 70%)" opacity="0.43"></circle><circle r="15.5" cx="628" cy="727" fill="hsl(311, 75%, 70%)" opacity="0.97"></circle><circle r="13" cx="737" cy="603" fill="hsl(248, 75%, 70%)" opacity="0.30"></circle><circle r="8.5" cx="377" cy="108" fill="hsl(195, 75%, 70%)" opacity="0.35"></circle><circle r="11" cx="778" cy="668" fill="hsl(180, 75%, 70%)" opacity="0.32"></circle><circle r="12" cx="534" cy="166" fill="hsl(265, 75%, 70%)" opacity="0.15"></circle><circle r="9" cx="471" cy="193" fill="hsl(209, 75%, 70%)" opacity="0.49"></circle><circle r="5.5" cx="135" cy="619" fill="hsl(14, 75%, 70%)" opacity="0.61"></circle><circle r="5" cx="141" cy="425" fill="hsl(9, 75%, 70%)" opacity="0.32"></circle><circle r="8.5" cx="379" cy="780" fill="hsl(125, 75%, 70%)" opacity="0.31"></circle><circle r="8.5" cx="408" cy="238" fill="hsl(151, 75%, 70%)" opacity="0.86"></circle><circle r="6.5" cx="103" cy="85" fill="hsl(13, 75%, 70%)" opacity="0.56"></circle><circle r="6" cx="327" cy="659" fill="hsl(72, 75%, 70%)" opacity="0.30"></circle><circle r="12" cx="689" cy="623" fill="hsl(287, 75%, 70%)" opacity="0.66"></circle><circle r="12" cx="632" cy="369" fill="hsl(311, 75%, 70%)" opacity="0.25"></circle><circle r="14" cx="633" cy="292" fill="hsl(311, 75%, 70%)" opacity="0.67"></circle><circle r="11.5" cx="668" cy="20" fill="hsl(296, 75%, 70%)" opacity="0.66"></circle><circle r="8.5" cx="470" cy="357" fill="hsl(209, 75%, 70%)" opacity="0.30"></circle><circle r="5.5" cx="139" cy="572" fill="hsl(9, 75%, 70%)" opacity="0.19"></circle><circle r="11" cx="509" cy="133" fill="hsl(257, 75%, 70%)" opacity="0.37"></circle><circle r="14" cx="383" cy="34" fill="hsl(272, 75%, 70%)" opacity="0.81"></circle><circle r="4.5" cx="170" cy="278" fill="hsl(3, 75%, 70%)" opacity="0.57"></circle><circle r="7.5" cx="707" cy="13" fill="hsl(288, 75%, 70%)" opacity="0.27"></circle><circle r="5" cx="40" cy="406" fill="hsl(56, 75%, 70%)" opacity="0.33"></circle><circle r="9" cx="329" cy="15" fill="hsl(244, 75%, 70%)" opacity="0.22"></circle><circle r="6.5" cx="84" cy="683" fill="hsl(38, 75%, 70%)" opacity="0.15"></circle><circle r="4.5" cx="265" cy="749" fill="hsl(23, 75%, 70%)" opacity="0.21"></circle><circle r="8" cx="675" cy="569" fill="hsl(297, 75%, 70%)" opacity="0.88"></circle><circle r="3" cx="266" cy="789" fill="hsl(23, 75%, 70%)" opacity="0.93"></circle><circle r="5" cx="267" cy="420" fill="hsl(23, 75%, 70%)" opacity="0.26"></circle><circle r="10.5" cx="670" cy="175" fill="hsl(315, 75%, 70%)" opacity="0.27"></circle><circle r="8" cx="433" cy="117" fill="hsl(216, 75%, 70%)" opacity="0.50"></circle><circle r="8" cx="402" cy="490" fill="hsl(151, 75%, 70%)" opacity="0.50"></circle><circle r="6.5" cx="317" cy="209" fill="hsl(60, 75%, 70%)" opacity="0.45"></circle><circle r="13" cx="508" cy="63" fill="hsl(286, 75%, 70%)" opacity="0.11"></circle><circle r="14.5" cx="523" cy="621" fill="hsl(252, 75%, 70%)" opacity="0.16"></circle><circle r="14" cx="455" cy="464" fill="hsl(198, 75%, 70%)" opacity="0.55"></circle><circle r="12.5" cx="527" cy="98" fill="hsl(289, 75%, 70%)" opacity="0.35"></circle><circle r="9" cx="754" cy="784" fill="hsl(215, 75%, 70%)" opacity="0.78"></circle><circle r="5" cx="201" cy="481" fill="hsl(1, 75%, 70%)" opacity="0.41"></circle><circle r="9.5" cx="781" cy="531" fill="hsl(180, 75%, 70%)" opacity="0.50"></circle><circle r="6" cx="171" cy="142" fill="hsl(3, 75%, 70%)" opacity="0.16"></circle><circle r="4" cx="158" cy="531" fill="hsl(5, 75%, 70%)" opacity="0.34"></circle><circle r="6.5" cx="339" cy="401" fill="hsl(85, 75%, 70%)" opacity="0.36"></circle><circle r="7.5" cx="377" cy="632" fill="hsl(125, 75%, 70%)" opacity="0.85"></circle><circle r="11" cx="426" cy="716" fill="hsl(175, 75%, 70%)" opacity="0.27"></circle><circle r="12" cx="585" cy="708" fill="hsl(295, 75%, 70%)" opacity="0.28"></circle><circle r="5" cx="16" cy="717" fill="hsl(67, 75%, 70%)" opacity="0.16"></circle><circle r="11.5" cx="498" cy="311" fill="hsl(231, 75%, 70%)" opacity="0.78"></circle><circle r="4" cx="90" cy="722" fill="hsl(31, 75%, 70%)" opacity="0.56"></circle><circle r="7" cx="69" cy="529" fill="hsl(44, 75%, 70%)" opacity="0.67"></circle><circle r="11" cx="472" cy="98" fill="hsl(259, 75%, 70%)" opacity="0.95"></circle><circle r="9.5" cx="759" cy="363" fill="hsl(215, 75%, 70%)" opacity="0.12"></circle><circle r="13.5" cx="563" cy="206" fill="hsl(288, 75%, 70%)" opacity="0.16"></circle><circle r="5.5" cx="97" cy="610" fill="hsl(31, 75%, 70%)" opacity="0.46"></circle><circle r="11.5" cx="742" cy="559" fill="hsl(232, 75%, 70%)" opacity="0.85"></circle><circle r="7" cx="106" cy="240" fill="hsl(25, 75%, 70%)" opacity="0.81"></circle><circle r="4.5" cx="171" cy="682" fill="hsl(3, 75%, 70%)" opacity="0.64"></circle><circle r="5.5" cx="184" cy="585" fill="hsl(1, 75%, 70%)" opacity="0.93"></circle><circle r="4.5" cx="137" cy="784" fill="hsl(14, 75%, 70%)" opacity="0.26"></circle><circle r="4" cx="288" cy="444" fill="hsl(39, 75%, 70%)" opacity="0.22"></circle><circle r="11.5" cx="643" cy="227" fill="hsl(310, 75%, 70%)" opacity="0.19"></circle><circle r="7" cx="189" cy="19" fill="hsl(87, 75%, 70%)" opacity="0.22"></circle><circle r="6" cx="370" cy="297" fill="hsl(112, 75%, 70%)" opacity="0.44"></circle><circle r="8" cx="195" cy="87" fill="hsl(43, 75%, 70%)" opacity="0.76"></circle><circle r="7" cx="330" cy="173" fill="hsl(83, 75%, 70%)" opacity="0.51"></circle><circle r="6.5" cx="525" cy="325" fill="hsl(262, 75%, 70%)" opacity="0.75"></circle><circle r="5" cx="196" cy="254" fill="hsl(1, 75%, 70%)" opacity="0.98"></circle><circle r="8.5" cx="699" cy="787" fill="hsl(287, 75%, 70%)" opacity="0.83"></circle><circle r="13" cx="704" cy="266" fill="hsl(276, 75%, 70%)" opacity="0.48"></circle><circle r="11" cx="643" cy="772" fill="hsl(310, 75%, 70%)" opacity="0.69"></circle><circle r="12" cx="567" cy="293" fill="hsl(288, 75%, 70%)" opacity="0.78"></circle><circle r="5.5" cx="295" cy="733" fill="hsl(39, 75%, 70%)" opacity="0.93"></circle><circle r="6.5" cx="297" cy="390" fill="hsl(39, 75%, 70%)" opacity="0.77"></circle><circle r="5.5" cx="385" cy="599" fill="hsl(125, 75%, 70%)" opacity="0.19"></circle><circle r="6.5" cx="631" cy="206" fill="hsl(311, 75%, 70%)" opacity="0.64"></circle><circle r="19" cx="636" cy="667" fill="hsl(311, 75%, 70%)" opacity="0.76"></circle><circle r="10" cx="595" cy="628" fill="hsl(301, 75%, 70%)" opacity="0.67"></circle><circle r="7" cx="370" cy="260" fill="hsl(112, 75%, 70%)" opacity="0.67"></circle><circle r="6" cx="130" cy="678" fill="hsl(14, 75%, 70%)" opacity="0.32"></circle><circle r="11" cx="579" cy="18" fill="hsl(291, 75%, 70%)" opacity="0.39"></circle><circle r="7.5" cx="459" cy="684" fill="hsl(198, 75%, 70%)" opacity="0.82"></circle><circle r="4.5" cx="94" cy="751" fill="hsl(31, 75%, 70%)" opacity="0.28"></circle><circle r="8.5" cx="438" cy="273" fill="hsl(187, 75%, 70%)" opacity="0.49"></circle><circle r="5" cx="332" cy="298" fill="hsl(72, 75%, 70%)" opacity="0.93"></circle><circle r="5.5" cx="75" cy="637" fill="hsl(44, 75%, 70%)" opacity="0.63"></circle><circle r="16.5" cx="733" cy="86" fill="hsl(322, 75%, 70%)" opacity="0.91"></circle><circle r="9" cx="735" cy="302" fill="hsl(248, 75%, 70%)" opacity="0.34"></circle><circle r="14" cx="451" cy="528" fill="hsl(198, 75%, 70%)" opacity="0.12"></circle><circle r="7.5" cx="258" cy="77" fill="hsl(107, 75%, 70%)" opacity="0.63"></circle><circle r="5" cx="213" cy="307" fill="hsl(3, 75%, 70%)" opacity="0.16"></circle><circle r="15.5" cx="695" cy="123" fill="hsl(342, 75%, 70%)" opacity="0.85"></circle><circle r="18" cx="681" cy="702" fill="hsl(297, 75%, 70%)" opacity="0.56"></circle><circle r="12" cx="502" cy="415" fill="hsl(241, 75%, 70%)" opacity="0.96"></circle><circle r="9" cx="449" cy="312" fill="hsl(187, 75%, 70%)" opacity="0.39"></circle><circle r="16.5" cx="606" cy="540" fill="hsl(306, 75%, 70%)" opacity="0.13"></circle><circle r="8.5" cx="426" cy="671" fill="hsl(175, 75%, 70%)" opacity="0.12"></circle><circle r="4.5" cx="11" cy="382" fill="hsl(72, 75%, 70%)" opacity="0.79"></circle><circle r="12.5" cx="448" cy="762" fill="hsl(187, 75%, 70%)" opacity="0.66"></circle><circle r="5" cx="239" cy="187" fill="hsl(14, 75%, 70%)" opacity="0.81"></circle><circle r="9" cx="631" cy="181" fill="hsl(319, 75%, 70%)" opacity="0.55"></circle><circle r="6.5" cx="470" cy="12" fill="hsl(293, 75%, 70%)" opacity="0.24"></circle><circle r="6" cx="244" cy="275" fill="hsl(11, 75%, 70%)" opacity="0.63"></circle><circle r="6.5" cx="779" cy="301" fill="hsl(180, 75%, 70%)" opacity="0.33"></circle><circle r="5" cx="88" cy="307" fill="hsl(31, 75%, 70%)" opacity="0.66"></circle><circle r="4.5" cx="110" cy="26" fill="hsl(47, 75%, 70%)" opacity="0.17"></circle><circle r="14" cx="713" cy="748" fill="hsl(263, 75%, 70%)" opacity="0.69"></circle><circle r="10.5" cx="668" cy="536" fill="hsl(303, 75%, 70%)" opacity="0.20"></circle><circle r="7" cx="450" cy="15" fill="hsl(294, 75%, 70%)" opacity="0.97"></circle><circle r="10.5" cx="552" cy="47" fill="hsl(299, 75%, 70%)" opacity="0.36"></circle><circle r="4" cx="88" cy="374" fill="hsl(31, 75%, 70%)" opacity="0.30"></circle><circle r="11" cx="634" cy="22" fill="hsl(296, 75%, 70%)" opacity="0.17"></circle><circle r="11.5" cx="504" cy="462" fill="hsl(241, 75%, 70%)" opacity="0.56"></circle><circle r="7" cx="291" cy="268" fill="hsl(39, 75%, 70%)" opacity="0.57"></circle><circle r="8" cx="326" cy="610" fill="hsl(72, 75%, 70%)" opacity="0.38"></circle><circle r="6.5" cx="123" cy="359" fill="hsl(19, 75%, 70%)" opacity="0.59"></circle><circle r="10" cx="543" cy="784" fill="hsl(271, 75%, 70%)" opacity="1.00"></circle><circle r="7.5" cx="785" cy="332" fill="hsl(180, 75%, 70%)" opacity="0.29"></circle><circle r="9.5" cx="550" cy="668" fill="hsl(280, 75%, 70%)" opacity="0.66"></circle><circle r="6" cx="229" cy="775" fill="hsl(7, 75%, 70%)" opacity="0.92"></circle><circle r="4" cx="144" cy="254" fill="hsl(9, 75%, 70%)" opacity="0.33"></circle><circle r="10" cx="497" cy="173" fill="hsl(233, 75%, 70%)" opacity="0.71"></circle><circle r="10" cx="780" cy="579" fill="hsl(180, 75%, 70%)" opacity="0.23"></circle><circle r="12.5" cx="338" cy="57" fill="hsl(227, 75%, 70%)" opacity="0.73"></circle><circle r="9" cx="485" cy="695" fill="hsl(220, 75%, 70%)" opacity="0.24"></circle><circle r="6" cx="103" cy="495" fill="hsl(25, 75%, 70%)" opacity="0.15"></circle><circle r="5.5" cx="320" cy="430" fill="hsl(60, 75%, 70%)" opacity="0.45"></circle><circle r="13.5" cx="743" cy="161" fill="hsl(277, 75%, 70%)" opacity="0.21"></circle><circle r="14" cx="714" cy="657" fill="hsl(263, 75%, 70%)" opacity="0.15"></circle><circle r="6" cx="357" cy="491" fill="hsl(98, 75%, 70%)" opacity="0.77"></circle><circle r="7.5" cx="335" cy="726" fill="hsl(72, 75%, 70%)" opacity="0.39"></circle><circle r="7" cx="53" cy="571" fill="hsl(50, 75%, 70%)" opacity="0.86"></circle><circle r="7" cx="357" cy="670" fill="hsl(98, 75%, 70%)" opacity="0.12"></circle><circle r="7" cx="261" cy="586" fill="hsl(16, 75%, 70%)" opacity="0.43"></circle><circle r="12" cx="612" cy="65" fill="hsl(324, 75%, 70%)" opacity="0.38"></circle><circle r="5" cx="229" cy="409" fill="hsl(7, 75%, 70%)" opacity="0.24"></circle><circle r="7" cx="143" cy="738" fill="hsl(9, 75%, 70%)" opacity="0.53"></circle><circle r="8" cx="739" cy="251" fill="hsl(232, 75%, 70%)" opacity="0.17"></circle><circle r="14" cx="742" cy="699" fill="hsl(232, 75%, 70%)" opacity="0.71"></circle><circle r="10.5" cx="548" cy="355" fill="hsl(271, 75%, 70%)" opacity="0.70"></circle><circle r="5.5" cx="279" cy="486" fill="hsl(31, 75%, 70%)" opacity="0.11"></circle><circle r="6" cx="168" cy="391" fill="hsl(3, 75%, 70%)" opacity="0.82"></circle><circle r="13.5" cx="540" cy="480" fill="hsl(271, 75%, 70%)" opacity="0.62"></circle><circle r="8" cx="448" cy="641" fill="hsl(187, 75%, 70%)" opacity="0.79"></circle><circle r="6" cx="290" cy="632" fill="hsl(39, 75%, 70%)" opacity="0.97"></circle><circle r="4.5" cx="206" cy="175" fill="hsl(3, 75%, 70%)" opacity="0.59"></circle><circle r="9.5" cx="565" cy="633" fill="hsl(288, 75%, 70%)" opacity="0.75"></circle><circle r="14.5" cx="693" cy="393" fill="hsl(287, 75%, 70%)" opacity="0.51"></circle><circle r="11.5" cx="678" cy="223" fill="hsl(297, 75%, 70%)" opacity="0.25"></circle><circle r="10" cx="496" cy="16" fill="hsl(292, 75%, 70%)" opacity="0.39"></circle><circle r="8" cx="404" cy="283" fill="hsl(151, 75%, 70%)" opacity="0.88"></circle><circle r="7.5" cx="372" cy="706" fill="hsl(112, 75%, 70%)" opacity="0.54"></circle><circle r="4.5" cx="168" cy="504" fill="hsl(3, 75%, 70%)" opacity="0.45"></circle><circle r="5.5" cx="789" cy="773" fill="hsl(162, 75%, 70%)" opacity="0.37"></circle><circle r="5.5" cx="266" cy="672" fill="hsl(23, 75%, 70%)" opacity="0.98"></circle><circle r="7.5" cx="59" cy="119" fill="hsl(25, 75%, 70%)" opacity="0.20"></circle><circle r="6" cx="96" cy="567" fill="hsl(31, 75%, 70%)" opacity="0.16"></circle><circle r="8.5" cx="710" cy="232" fill="hsl(276, 75%, 70%)" opacity="0.57"></circle><circle r="5" cx="84" cy="783" fill="hsl(38, 75%, 70%)" opacity="0.96"></circle><circle r="7" cx="344" cy="361" fill="hsl(85, 75%, 70%)" opacity="0.32"></circle><circle r="8.5" cx="423" cy="78" fill="hsl(249, 75%, 70%)" opacity="0.79"></circle><circle r="8" cx="549" cy="321" fill="hsl(271, 75%, 70%)" opacity="0.84"></circle><circle r="7" cx="748" cy="277" fill="hsl(232, 75%, 70%)" opacity="0.20"></circle><circle r="11" cx="583" cy="673" fill="hsl(295, 75%, 70%)" opacity="0.32"></circle><circle r="7.5" cx="785" cy="721" fill="hsl(180, 75%, 70%)" opacity="0.91"></circle><circle r="4.5" cx="340" cy="268" fill="hsl(85, 75%, 70%)" opacity="0.27"></circle><circle r="7.5" cx="780" cy="177" fill="hsl(197, 75%, 70%)" opacity="0.79"></circle><circle r="11.5" cx="679" cy="504" fill="hsl(297, 75%, 70%)" opacity="0.32"></circle><circle r="7.5" cx="319" cy="565" fill="hsl(60, 75%, 70%)" opacity="0.67"></circle><circle r="12.5" cx="641" cy="568" fill="hsl(310, 75%, 70%)" opacity="0.78"></circle><circle r="11" cx="650" cy="74" fill="hsl(335, 75%, 70%)" opacity="0.80"></circle><circle r="8.5" cx="438" cy="348" fill="hsl(187, 75%, 70%)" opacity="0.31"></circle><circle r="6.5" cx="17" cy="530" fill="hsl(67, 75%, 70%)" opacity="0.69"></circle><circle r="8" cx="784" cy="394" fill="hsl(180, 75%, 70%)" opacity="0.22"></circle><circle r="5.5" cx="14" cy="773" fill="hsl(67, 75%, 70%)" opacity="0.12"></circle><circle r="5" cx="149" cy="78" fill="hsl(15, 75%, 70%)" opacity="0.28"></circle><circle r="8" cx="482" cy="46" fill="hsl(290, 75%, 70%)" opacity="0.33"></circle><circle r="12" cx="671" cy="759" fill="hsl(303, 75%, 70%)" opacity="0.18"></circle><circle r="11" cx="533" cy="18" fill="hsl(289, 75%, 70%)" opacity="0.88"></circle><circle r="11.5" cx="536" cy="402" fill="hsl(262, 75%, 70%)" opacity="0.44"></circle><circle r="9.5" cx="506" cy="721" fill="hsl(241, 75%, 70%)" opacity="0.75"></circle><circle r="9" cx="44" cy="30" fill="hsl(96, 75%, 70%)" opacity="0.94"></circle><circle r="8.5" cx="436" cy="217" fill="hsl(175, 75%, 70%)" opacity="0.22"></circle><circle r="5" cx="157" cy="469" fill="hsl(5, 75%, 70%)" opacity="0.90"></circle><circle r="3.5" cx="67" cy="391" fill="hsl(44, 75%, 70%)" opacity="0.29"></circle><circle r="5.5" cx="245" cy="329" fill="hsl(11, 75%, 70%)" opacity="0.48"></circle><circle r="7.5" cx="321" cy="777" fill="hsl(60, 75%, 70%)" opacity="0.26"></circle><circle r="7.5" cx="769" cy="428" fill="hsl(197, 75%, 70%)" opacity="0.86"></circle><circle r="10.5" cx="294" cy="64" fill="hsl(164, 75%, 70%)" opacity="0.44"></circle><circle r="4.5" cx="163" cy="42" fill="hsl(49, 75%, 70%)" opacity="0.72"></circle><circle r="5" cx="140" cy="117" fill="hsl(3, 75%, 70%)" opacity="0.34"></circle><circle r="6" cx="183" cy="633" fill="hsl(1, 75%, 70%)" opacity="0.27"></circle><circle r="5.5" cx="171" cy="197" fill="hsl(3, 75%, 70%)" opacity="0.70"></circle><circle r="10" cx="711" cy="548" fill="hsl(276, 75%, 70%)" opacity="0.70"></circle><circle r="5" cx="52" cy="707" fill="hsl(50, 75%, 70%)" opacity="0.13"></circle><circle r="4.5" cx="20" cy="684" fill="hsl(67, 75%, 70%)" opacity="0.67"></circle><circle r="7.5" cx="34" cy="491" fill="hsl(62, 75%, 70%)" opacity="0.16"></circle><circle r="5.5" cx="66" cy="335" fill="hsl(44, 75%, 70%)" opacity="0.19"></circle><circle r="16.5" cx="684" cy="70" fill="hsl(336, 75%, 70%)" opacity="0.77"></circle><circle r="11" cx="655" cy="398" fill="hsl(308, 75%, 70%)" opacity="0.84"></circle><circle r="8" cx="226" cy="130" fill="hsl(36, 75%, 70%)" opacity="0.19"></circle><circle r="6.5" cx="239" cy="504" fill="hsl(11, 75%, 70%)" opacity="0.39"></circle><circle r="10.5" cx="728" cy="509" fill="hsl(248, 75%, 70%)" opacity="0.74"></circle><circle r="7.5" cx="416" cy="12" fill="hsl(290, 75%, 70%)" opacity="0.59"></circle><circle r="12.5" cx="498" cy="520" fill="hsl(231, 75%, 70%)" opacity="0.17"></circle><circle r="9" cx="276" cy="150" fill="hsl(52, 75%, 70%)" opacity="0.37"></circle><circle r="15.5" cx="591" cy="261" fill="hsl(301, 75%, 70%)" opacity="0.84"></circle><circle r="11.5" cx="555" cy="121" fill="hsl(299, 75%, 70%)" opacity="0.26"></circle><circle r="10.5" cx="604" cy="33" fill="hsl(304, 75%, 70%)" opacity="0.83"></circle><circle r="6" cx="130" cy="193" fill="hsl(14, 75%, 70%)" opacity="0.98"></circle><circle r="6" cx="297" cy="695" fill="hsl(39, 75%, 70%)" opacity="0.52"></circle><circle r="9" cx="236" cy="34" fill="hsl(121, 75%, 70%)" opacity="0.67"></circle><circle r="9" cx="340" cy="101" fill="hsl(164, 75%, 70%)" opacity="0.61"></circle><circle r="8.5" cx="53" cy="174" fill="hsl(36, 75%, 70%)" opacity="0.98"></circle><circle r="10.5" cx="451" cy="596" fill="hsl(198, 75%, 70%)" opacity="0.81"></circle><circle r="9.5" cx="764" cy="494" fill="hsl(197, 75%, 70%)" opacity="0.78"></circle><circle r="12.5" cx="505" cy="363" fill="hsl(241, 75%, 70%)" opacity="0.43"></circle><circle r="15" cx="662" cy="267" fill="hsl(308, 75%, 70%)" opacity="0.62"></circle><circle r="11" cx="589" cy="117" fill="hsl(324, 75%, 70%)" opacity="0.49"></circle><circle r="9.5" cx="781" cy="210" fill="hsl(180, 75%, 70%)" opacity="0.51"></circle><circle r="10" cx="402" cy="365" fill="hsl(151, 75%, 70%)" opacity="0.36"></circle></svg>